# xmcd CD database file
# Copyright (C) 1993-1998 Ti Kan
# 
# Track frame offsets:
#     187
#     11517
#     24505
#     35815
# 
# Disc length: 775 seconds
# 
# Revision: 1
# Processed by: cddbd v1.4b41PL1 Copyright (c) Steve Scherf et al.
# Submitted via: DiscPlay 4.0.4
# 
DISCID=28030504
DTITLE=Ann Peebles - I Can't Stand The Rain
DYEAR=1900
DGENRE=
TTITLE0=I Can't Stand The Rain
TTITLE1=Part Time Love
TTITLE2=Breaking Up Somebody's Home
TTITLE3=I Needed Somebody
EXTD=
EXTT0=
EXTT1=
EXTT2=
EXTT3=
PLAYORDER=
